<svg width="32" height="28" viewBox="0 0 32 28" fill="none" xmlns="http://www.w3.org/2000/svg">
<path d="M29.7682 6.43672C29.9703 5.75312 29.7682 5.25 28.796 5.25H25.5788C24.7595 5.25 24.3826 5.68203 24.1805 6.16328C24.1805 6.16328 22.5418 10.1609 20.2259 12.7531C19.4776 13.5023 19.1335 13.743 18.7238 13.743C18.5217 13.743 18.2104 13.5023 18.2104 12.8188V6.43672C18.2104 5.61641 17.981 5.25 17.3037 5.25H12.2457C11.7323 5.25 11.4264 5.63281 11.4264 5.98828C11.4264 6.76484 12.5844 6.94531 12.7046 9.13281V13.8797C12.7046 14.9188 12.5189 15.1102 12.1092 15.1102C11.0168 15.1102 8.36218 11.0961 6.78909 6.50234C6.47228 5.61094 6.16094 5.25 5.33616 5.25H2.11897C1.20134 5.25 1.01562 5.68203 1.01562 6.16328C1.01562 7.01641 2.10805 11.2547 6.10086 16.8547C8.76091 20.6773 12.5079 22.75 15.9163 22.75C17.9646 22.75 18.2158 22.2906 18.2158 21.4977C18.2158 17.8445 18.0301 17.5 19.057 17.5C19.5322 17.5 20.3515 17.7406 22.2633 19.5836C24.4481 21.7711 24.8086 22.75 26.0321 22.75H29.2493C30.167 22.75 30.6312 22.2906 30.3636 21.3828C29.7518 19.4742 25.617 15.5477 25.4313 15.2852C24.9561 14.6727 25.0927 14.3992 25.4313 13.8523C25.4368 13.8469 29.364 8.3125 29.7682 6.43672Z" fill="white"/>
</svg>
